<svg aria-hidden="true" style="position: absolute; width: 0; height: 0; overflow: hidden;"
  version="1.1" xmlns="http://www.w3.org/2000/svg" xmlns:xlink="http://www.w3.org/1999/xlink">
  <defs> 
    <symbol id="icon-arrow-down" viewBox="0 0 64 32">
      <path fill="none" opacity="0.5314410000000002" stroke="#aaa" style="stroke: var(--color1, #aaa)" stroke-linejoin="miter" stroke-linecap="round" stroke-miterlimit="4" stroke-width="4.5714" d="M2.286 2.286l28.952 26.126"></path>
      <path fill="none" opacity="0.5314410000000002" stroke="#aaa" style="stroke: var(--color1, #aaa)" stroke-linejoin="miter" stroke-linecap="round" stroke-miterlimit="4" stroke-width="4.5714" d="M61.714 2.286l-28.952 26.126"></path>
    </symbol>
    <symbol id="icon-logo" viewBox="0 0 32 32">
      <path
        d="M22.427 22.896c0.021-0.002 0.043-0.002 0.064 0h2.124c0.042 0.046 0.070 0.102 0.080 0.163 0.379 1.135 0.76 2.27 1.143 3.405l1.217 3.616c0 0.054 0.038 0.106 0.067 0.179 0.029-0.070 0.051-0.118 0.067-0.166l1.341-3.958 1.044-3.094c0.019-0.054 0.041-0.109 0.064-0.166h2.197c0.010 0.016 0.016 0.033 0.019 0.051 0 2.95 0 5.901 0 8.851 0.002 0.019 0.002 0.038 0 0.058 0 0-0.022 0-0.032 0h-1.437c0-0.029 0-0.054 0-0.077s0-0.106 0-0.16c0-2.242 0-4.482 0-6.72 0.009-0.070 0.001-0.141-0.022-0.208-0.105 0.256-0.176 0.499-0.259 0.733s-0.163 0.48-0.246 0.72c-0.083 0.24-0.16 0.47-0.243 0.704s-0.163 0.477-0.246 0.717l-0.246 0.72c-0.083 0.24-0.163 0.48-0.246 0.717s-0.163 0.48-0.246 0.72c-0.083 0.24-0.16 0.467-0.243 0.704s-0.163 0.477-0.246 0.717c-0.083 0.24-0.163 0.48-0.243 0.714-0.125 0.026-1.194 0.035-1.523 0-0.051-0.035-0.058-0.099-0.073-0.15l-0.811-2.307-1.526-4.48c0-0.048-0.035-0.096-0.057-0.147-0.042 0-0.026 0.048-0.026 0.067s0 0.106 0 0.16v6.685c0 0.064 0 0.125 0 0.192-0.021 0.010-0.044 0.016-0.067 0.019h-1.386c-0.009-0.027-0.017-0.055-0.022-0.083 0-0.042 0-0.083 0-0.125v-8.563c-0.010-0.069-0.003-0.139 0.019-0.205z"></path>
      <path
        d="M9.018 27.303c0.013 0.797-0.158 1.585-0.501 2.304-0.268 0.554-0.654 1.042-1.132 1.429s-1.034 0.664-1.63 0.811c-0.562 0.147-1.146 0.192-1.724 0.134-0.554-0.047-1.095-0.194-1.597-0.435-0.508-0.248-0.961-0.596-1.333-1.023s-0.653-0.925-0.829-1.463c-0.204-0.598-0.296-1.228-0.271-1.859 0.011-0.562 0.119-1.117 0.319-1.642 0.248-0.704 0.679-1.329 1.249-1.81s1.258-0.801 1.992-0.926c0.851-0.178 1.736-0.117 2.555 0.176 0.611 0.21 1.165 0.56 1.619 1.021s0.795 1.021 0.997 1.635c0.148 0.419 0.236 0.856 0.262 1.299 0.013 0.131 0.022 0.275 0.026 0.349zM7.479 27.271c-0.003-0.226-0.026-0.451-0.070-0.672-0.065-0.397-0.203-0.779-0.406-1.126-0.178-0.315-0.417-0.591-0.705-0.811s-0.615-0.379-0.966-0.469c-0.523-0.137-1.073-0.137-1.597 0-0.615 0.15-1.158 0.513-1.533 1.024-0.254 0.334-0.439 0.716-0.543 1.123-0.115 0.461-0.15 0.938-0.105 1.411 0.031 0.405 0.13 0.802 0.294 1.174 0.148 0.357 0.37 0.679 0.65 0.944s0.614 0.468 0.978 0.595c0.439 0.156 0.908 0.209 1.37 0.154 0.514-0.045 1.006-0.233 1.42-0.542s0.734-0.727 0.924-1.208c0.203-0.507 0.3-1.051 0.287-1.597z"></path>
      <path
        d="M32 4.576c0.014 0.744-0.133 1.482-0.431 2.163-0.266 0.611-0.674 1.148-1.189 1.569s-1.124 0.712-1.774 0.85c-0.886 0.218-1.817 0.175-2.679-0.125-0.627-0.206-1.196-0.557-1.661-1.025s-0.813-1.040-1.015-1.669c-0.194-0.581-0.282-1.192-0.259-1.805 0.007-0.55 0.102-1.096 0.281-1.616 0.241-0.718 0.67-1.358 1.241-1.854s1.266-0.829 2.009-0.965c0.851-0.178 1.734-0.12 2.555 0.166 0.615 0.207 1.173 0.555 1.63 1.016s0.801 1.022 1.004 1.64c0.149 0.412 0.238 0.843 0.265 1.28 0.010 0.15 0.019 0.298 0.022 0.374zM30.467 4.653c0-0.173-0.022-0.349-0.042-0.522-0.041-0.421-0.16-0.83-0.351-1.206-0.163-0.338-0.394-0.639-0.679-0.884s-0.617-0.427-0.975-0.537c-0.45-0.139-0.926-0.175-1.392-0.106-0.699 0.085-1.337 0.44-1.779 0.989-0.323 0.399-0.542 0.872-0.639 1.376-0.094 0.434-0.117 0.88-0.070 1.322 0.045 0.438 0.169 0.864 0.367 1.258 0.301 0.637 0.837 1.133 1.494 1.382 0.445 0.169 0.922 0.231 1.395 0.182 0.421-0.033 0.83-0.159 1.198-0.368 0.557-0.332 0.981-0.848 1.201-1.459 0.176-0.455 0.268-0.939 0.271-1.427z"></path>
      <path
        d="M5.288 5.12l0.153 0.070c0.422 0.178 0.761 0.511 0.945 0.931 0.097 0.211 0.168 0.432 0.214 0.659 0.157 0.73 0.313 1.457 0.466 2.182 0 0.058 0.022 0.112 0.032 0.179-0.026 0.008-0.053 0.013-0.080 0.016h-1.45c0-0.032-0.029-0.070-0.038-0.109-0.128-0.608-0.257-1.216-0.386-1.824-0.032-0.157-0.077-0.32-0.118-0.461-0.009-0.035-0.022-0.070-0.038-0.102-0.090-0.27-0.255-0.509-0.475-0.688s-0.488-0.291-0.77-0.323c-0.172-0.024-0.346-0.037-0.52-0.038h-1.325c-0.055-0.010-0.111-0.001-0.16 0.026-0.019 0.163 0 0.32 0 0.499v3.011c-0.027 0.007-0.055 0.013-0.083 0.016h-1.37c-0.023 0.002-0.047 0.002-0.070 0v-0.093c-0.002-0.031-0.002-0.062 0-0.093v-8.602c0-0.064 0-0.125 0-0.195 0.045-0.003 0.089-0.003 0.134 0h3.612c0.422-0.005 0.841 0.059 1.242 0.189 0.235 0.077 0.46 0.185 0.667 0.32 0.467 0.302 0.807 0.764 0.958 1.299 0.144 0.501 0.144 1.032 0 1.533-0.084 0.309-0.232 0.597-0.435 0.845s-0.455 0.451-0.74 0.595c-0.054 0.032-0.112 0.058-0.169 0.086l-0.195 0.070zM1.737 4.262h2.322c0.168-0.007 0.335-0.041 0.492-0.102 0.195-0.069 0.369-0.186 0.508-0.34s0.237-0.339 0.287-0.54c0.042-0.159 0.054-0.323 0.038-0.486-0.012-0.249-0.096-0.49-0.243-0.691s-0.348-0.356-0.581-0.445c-0.186-0.076-0.384-0.116-0.584-0.118h-2.060c-0.055-0.010-0.112-0.003-0.163 0.019-0.022 0.157-0.032 1.6 0 2.582-0.026 0.019-0.019 0.064-0.016 0.122z"></path>
    </symbol>
    <symbol id="icon-cart" viewBox="0 0 32 32">
      <path
        d="M0.013 0.934c0 0.515 0.345 0.934 0.77 0.934h2.689c0.979 0 1.801 0.71 2.11 1.839l4.075 14.823-2.318 7.029c-0.207 0.624 0.178 1.266 0.713 1.281h16.957c0.425 0 0.77-0.418 0.77-0.934s-0.345-0.934-0.77-0.934h-15.822l1.807-5.477h14.016c0.341 0 0.63-0.268 0.732-0.64l4.815-13.138c0.23-0.631-0.157-1.287-0.701-1.31h-22.462l-0.353-1.284c-0.517-1.885-1.928-3.122-3.566-3.122h-2.689c-0.425 0-0.77 0.418-0.77 0.934zM11.025 17.626l-3.121-11.352h20.768l-4.161 11.352h-13.486z"></path>
      <path
        d="M9.634 27.871c0.966 0 1.749 0.925 1.749 2.065 0 1.139-0.783 2.064-1.749 2.064s-1.749-0.925-1.749-2.064c0-1.14 0.783-2.065 1.749-2.065z"></path>
      <path
        d="M23.627 27.871c0.966 0 1.749 0.925 1.749 2.065 0 1.139-0.783 2.064-1.749 2.064s-1.749-0.925-1.749-2.064c0-1.14 0.783-2.065 1.749-2.065z"></path>
    </symbol>
    <symbol id="icon-map-point" viewBox="0 0 27 32">
      <path
        d="M1.319 12.155c0-6.709 5.431-12.155 12.121-12.155s12.121 5.446 12.121 12.155c0 4.895-3.485 9.3-6.399 12.982l-5.159 6.579c-0.329 0.334-0.802 0.416-1.12 0.009-0.551-0.703-1.104-1.429-1.661-2.159-1.153-1.511-2.321-3.042-3.514-4.438l-0.001-0.001c-2.91-3.682-6.389-8.082-6.389-12.973zM24.144 12.155c0-5.933-4.787-10.734-10.704-10.734s-10.704 4.8-10.704 10.734c0 4.4 3.309 8.587 6.077 12.090l0.001 0.001c0.971 1.307 2.008 2.605 3.040 3.896 0.533 0.667 1.065 1.333 1.585 1.997l4.619-5.886c2.771-3.504 6.084-7.695 6.084-12.099z"></path>
      <path
        d="M8.246 11.852c0-3.268 2.588-5.926 5.772-5.926s5.772 2.658 5.772 5.926c0 3.268-2.589 5.926-5.772 5.926-3.186 0-5.772-2.654-5.772-5.925zM18.441 11.852c0-2.513-1.976-4.542-4.424-4.542s-4.423 2.030-4.423 4.542c0 2.509 1.979 4.541 4.423 4.541 2.447 0 4.424-2.028 4.424-4.541z"></path>
    </symbol>

    <symbol id="icon-star" viewBox="0 0 34 32">
      <path fill="#fff4cb" style="fill: var(--color1, #fff4cb)" d="M17.119 0.268l4.487 10.116 11.216 1.428c0.472 0.119 0.59 0.595 0.236 0.952l-8.028 7.498 2.125 11.068c0 0.476-0.472 0.833-0.826 0.595l-9.563-5.474-9.799 5.474c-0.472 0.238-0.826-0.119-0.826-0.595l2.243-10.83-8.265-7.736c-0.236-0.357-0.118-0.833 0.354-0.952l10.862-1.19 4.841-10.354c0.236-0.357 0.708-0.357 0.944 0z"></path>
      </symbol>
  </defs>
</svg>
  